<svg width="62" height="16" viewBox="0 0 62 16" fill="none" xmlns="http://www.w3.org/2000/svg"><path fill-rule="evenodd" clip-rule="evenodd" d="M4.041 8.01l-.058-.665h-.12l-.126.667-1.404 7.515H.323L3.016 1.105h1.95l.727 7.515.058.667h.122l.124-.667 1.404-7.515h2.01l-2.694 14.42h-1.95L4.04 8.01zm6.996-6.908h2.193l-2.695 14.421H8.342l2.695-14.42zm4.842 6.905l-.059-.667h-.12l-.125.667-1.404 7.514h-2.01L14.855 1.1h1.95l.726 7.514.059.666h.122l.124-.666L19.242 1.1h2.01l-2.694 14.42h-1.951l-.728-7.512zm6.2-3.947c.128-.687.765-3.12 3.447-3.121 2.682-.001 2.409 2.432 2.28 3.119l-1.532 8.203c-.19 1.02-.76 3.413-3.501 3.414-2.741.001-2.415-2.392-2.225-3.413l.169-.902h2.193c-.363 1.943-.421 2.472.207 2.47.549 0 .76-.47.964-1.568l.506-2.708a2.486 2.486 0 01-1.163.353c-2.253 0-2.018-2.235-1.868-3.039l.522-2.808zm3.65-.63a.545.545 0 00-.55-.647.907.907 0 00-.79.648l-.78 4.18a.567.567 0 00.548.647.849.849 0 00.78-.59l.792-4.237zm6.26-.237h-3.29l.393-2.099h5.523l-.396 2.12-4.49 12.303h-2.275L31.99 3.193zm3.683-2.1h5.015l-.409 2.177h-2.822l-.708 3.786h2.03l-.432 2.314h-2.03l-.738 3.966H38.4l-.409 2.178h-5.015l2.696-14.422zm10.214-.004h2.132L43.05 15.51h-2.193l.42-14.42h2.133l-.385 7.926-.032.608h.122l.194-.608 2.578-7.927zm3.128 0h5.016l-.409 2.177H50.8l-.708 3.787h2.03l-.431 2.314h-2.03l-.741 3.966h2.823l-.409 2.177h-5.015l2.696-14.42zm7.257 6.904l-.058-.667h-.121l-.125.667-1.406 7.514H52.55l2.698-14.422h1.95l.728 7.515.06.668h.122l.124-.668 1.407-7.514h2.01l-2.694 14.421h-1.951l-.733-7.514z" fill="#fff"/></svg>