<svg width="12" height="20" viewBox="0 0 12 20" fill="none" xmlns="http://www.w3.org/2000/svg"><path d="M11.291.004L8.477 0C5.315 0 3.272 1.842 3.272 4.692v2.164H.442c-.244 0-.442.174-.442.389v3.134c0 .215.198.39.443.39h2.83v7.909c0 .215.197.389.442.389h3.692c.244 0 .442-.175.442-.39v-7.909h2.135c.245 0 .443-.174.443-.389l1.175-3.134a.367.367 0 00-.13-.275.476.476 0 00-.313-.114h-3.31V5.022c0-.882.24-1.33 1.546-1.33h1.896c.244 0 .442-.174.442-.389V.393c0-.215-.197-.389-.442-.389z" fill="#3ABDB5"/></svg>