<svg width="21" height="21" viewBox="0 0 21 21" fill="none" xmlns="http://www.w3.org/2000/svg"><path fill-rule="evenodd" clip-rule="evenodd" d="M2 0a2 2 0 00-2 2v17a2 2 0 002 2h17a2 2 0 002-2V2a2 2 0 00-2-2H2zm14.25 2.73a1.375 1.375 0 011.932 0c.255.253.4.604.4.962s-.145.71-.4.963a1.383 1.383 0 01-.966.398 1.369 1.369 0 01-1.366-1.36c0-.36.146-.71.4-.963zM5 10.453c0-2.97 2.427-5.387 5.411-5.387 2.984 0 5.411 2.417 5.411 5.387 0 2.97-2.427 5.387-5.41 5.387C7.426 15.84 5 13.424 5 10.453zm1.863 0c0 1.948 1.592 3.532 3.548 3.532s3.548-1.584 3.548-3.532c0-1.947-1.591-3.532-3.548-3.532-1.956 0-3.548 1.585-3.548 3.532z" fill="#3ABDB5"/></svg>