<svg width="21" height="21" viewBox="0 0 21 21" fill="none" xmlns="http://www.w3.org/2000/svg"><path d="M19.1 0H1.9A1.9 1.9 0 000 1.9v17.2C0 20.15.85 21 1.9 21h17.2a1.9 1.9 0 001.9-1.9V1.9A1.9 1.9 0 0019.1 0zM6.498 18.133a.553.553 0 01-.553.553H3.592a.553.553 0 01-.553-.553V8.268c0-.305.248-.553.553-.553h2.353c.306 0 .553.248.553.553v9.865zM4.768 6.786a2.236 2.236 0 110-4.472 2.236 2.236 0 010 4.472zm14.028 11.391a.508.508 0 01-.508.509h-2.525a.508.508 0 01-.509-.509V13.55c0-.69.203-3.024-1.803-3.024-1.557 0-1.872 1.597-1.936 2.315v5.336a.508.508 0 01-.508.509H8.565a.508.508 0 01-.509-.509V8.224a.51.51 0 01.509-.509h2.442c.28 0 .508.228.508.509v.86c.577-.866 1.435-1.534 3.26-1.534 4.044 0 4.021 3.778 4.021 5.853v4.774z" fill="#3ABDB5"/></svg>