<svg width="224" height="34" viewBox="0 0 224 34" fill="none" xmlns="http://www.w3.org/2000/svg"><path d="M222.872 9.098l.903 1.137h.226l-.226-3.64h-18.968l-.226 3.64h.226l.903-1.137h7v16.375l-1.129.91v.227h5.42v-.227l-1.129-.91V9.098h7zM78.13 9.78l4.064 8.415h-7.677L78.13 9.78zm53.29 0l3.839 8.415h-7.678l3.839-8.415zm-22.129-.455c2.484 0 4.29.91 4.29 3.184 0 2.047-1.806 3.184-4.29 3.184h-7.903V9.325h7.903zm53.065 0c2.483 0 4.29.91 4.29 3.184 0 2.047-1.807 3.184-4.29 3.184h-7.904V9.325h7.904zM50.581 24.109V7.732l1.13-.682v-.455h-5.194v.227l.903.91v17.74l-1.129.91v.227h16.258l.226-3.639h-.226l-.903 1.137H50.58zm133 0V17.74h9.484l.678 1.137h.226V14.33h-.226l-.678 1.137h-9.484V9.098h11.968l.903 1.364h.226l-.226-3.866h-17.161v.227l1.129.682v17.74l-1.129.91v.228h17.613l.226-3.64h-.226l-.903 1.138h-12.42v.227zM133.227 6.595h-5.42v.227l1.129 1.137-7.677 17.513-1.129.91v.227h4.968v-.227l-.904-.91 2.258-4.776h9.936l2.258 4.776-1.129.91v.227h5.871v-.227l-1.129-1.137-9.032-18.65zm-53.065 0h-5.42v.227l1.13 1.137-7.678 17.513-1.129.91v.227h5.194v-.227l-.903-.91 2.032-4.776h9.935l2.258 4.776-1.129.91v.227h5.871v-.227l-1.354-1.137-8.807-18.65zm29.355 11.6c5.193 0 7.451-2.048 7.451-5.687 0-3.639-2.258-5.686-7.451-5.686H97.323v.228l1.13.682v17.74l-1.356.91v.227h5.42v-.227l-1.129-.91v-7.278h8.129zm60.064 7.505l-5.871-7.506c4.291-.227 6.323-2.274 6.323-5.686 0-3.639-2.258-5.686-7.452-5.686h-12.193v.228l.903.682v17.74l-1.129.91v.227h5.419v-.227l-1.129-.91v-7.278h5.194l6.548 8.415h4.516v-.227l-1.129-.682zM0 15.011c0 3.184 2.258 8.415 5.645 12.282C4.29 22.743 2.484 18.195 0 13.873v1.138zm9.484 15.693c-.903-5.686-2.032-11.372-4.29-17.285-.904-2.047-1.807-4.321-2.936-6.368C1.806 7.96 1.13 8.87.903 9.78c.678 1.592 1.355 3.184 2.032 4.549 2.033 4.776 3.388 9.78 4.517 14.783.677.683 1.354 1.137 2.032 1.592zm5.87-17.967C15.13 8.643 14.678 4.549 14.227 0c-.903 0-2.032.227-2.936.455.678 3.639.904 7.505 1.581 12.282.677 6.595 1.129 13.418 1.58 20.242.452 0 .904.227 1.355.227 0-6.596-.225-13.191-.451-20.47zm-4.967 1.137c-.677-3.867-1.58-7.733-3.161-11.6-.903.455-1.58 1.138-2.258 1.82 1.355 3.184 2.484 6.596 3.387 10.235 1.355 5.686 2.258 11.599 2.935 17.74.452.227.904.455 1.581.682-.452-6.368-1.13-12.509-2.484-18.877zm22.807 1.137v-1.137c-2.484 4.321-4.29 8.87-5.646 13.646 3.388-4.094 5.646-9.325 5.646-12.509zM23.71 30.704c.677-.455 1.354-.91 1.806-1.364 1.13-5.004 2.484-10.235 4.516-14.784.678-1.592 1.355-2.957 2.033-4.549-.452-1.137-.904-2.047-1.355-2.956-.904 2.047-1.807 4.32-2.71 6.368a101.722 101.722 0 00-4.29 17.285zm-5.871-17.967c-.452 7.505-.452 14.1-.678 20.697.452 0 .903 0 1.355-.228.452-6.823.903-13.419 1.58-20.242.452-4.776.904-8.643 1.581-12.282A59.03 59.03 0 0018.742 0c-.452 4.549-.678 8.643-.903 12.737zm4.742 1.137c-1.13 6.368-1.807 12.509-2.258 18.877.451-.227 1.129-.455 1.58-.682.678-5.914 1.58-11.827 2.936-17.74.903-3.64 1.806-7.051 3.387-10.235-.678-.682-1.58-1.137-2.484-1.82-1.355 3.867-2.258 7.733-3.161 11.6z" fill="#1D201E"/></svg>