<svg width="512" height="512" viewBox="0 0 512 512" fill="none" xmlns="http://www.w3.org/2000/svg">
<rect width="512" height="512" fill="white"/>
<path d="M32 232.939C32 275.986 62.5442 346.707 108.361 398.98C90.034 337.483 65.5986 275.986 32 217.565C32 220.639 32 226.789 32 232.939ZM160.286 445.102C148.068 368.231 132.796 291.361 102.252 211.415C90.034 183.742 77.8163 152.993 62.5442 125.32C56.4354 137.619 47.2721 149.918 44.2177 162.218C53.381 183.742 62.5442 205.265 71.7075 223.714C99.1973 288.286 117.524 355.932 132.796 423.578C141.959 432.803 151.122 438.952 160.286 445.102ZM239.701 202.19C236.646 146.844 230.537 91.4966 224.429 30C212.211 30 196.939 33.0748 184.721 36.1497C193.884 85.3469 196.939 137.619 206.102 202.19C215.265 291.361 221.374 383.605 227.483 475.85C233.592 475.85 239.701 478.925 245.81 478.925C245.81 389.755 242.755 300.585 239.701 202.19ZM172.503 217.565C163.34 165.293 151.122 113.02 129.741 60.7483C117.524 66.898 108.361 76.1224 99.1973 85.3469C117.524 128.395 132.796 174.517 145.014 223.714C163.34 300.585 175.558 380.531 184.721 463.551C190.83 466.626 196.939 469.701 206.102 472.776C199.993 386.68 190.83 303.66 172.503 217.565ZM481 232.939C481 226.789 481 220.639 481 217.565C447.401 275.986 422.966 337.483 404.639 402.054C450.456 346.708 481 275.986 481 232.939ZM352.714 445.102C361.878 438.952 371.041 432.803 377.15 426.653C392.422 359.007 410.748 288.286 438.238 226.789C447.401 205.265 456.565 186.816 465.728 165.293C459.619 149.918 453.51 137.619 447.401 125.32C435.184 152.993 422.966 183.742 410.748 211.415C383.258 291.361 364.932 368.231 352.714 445.102ZM273.299 202.19C267.19 303.66 267.19 392.83 264.136 482C270.245 482 276.354 482 282.463 478.925C288.571 386.68 294.68 297.51 303.844 205.265C309.952 140.694 316.061 88.4218 325.225 39.2245C313.007 36.1497 300.789 33.0748 285.517 30C279.408 91.4966 276.354 146.844 273.299 202.19ZM337.442 217.565C322.17 303.66 313.007 386.68 306.898 472.776C313.007 469.701 322.17 466.626 328.279 463.551C337.442 383.605 349.66 303.66 367.986 223.714C380.204 174.517 392.422 128.395 413.803 85.3469C404.639 76.1224 392.422 69.9728 380.204 60.7483C361.878 113.02 349.66 165.293 337.442 217.565Z" fill="url(#paint0_linear_1_2)"/>
<defs>
<linearGradient id="paint0_linear_1_2" x1="99.963" y1="-31.7688" x2="404.445" y2="523.944" gradientUnits="userSpaceOnUse">
<stop stop-color="#B09580"/>
<stop offset="1" stop-color="#82D6DB"/>
</linearGradient>
</defs>
</svg>
