<svg width="62" height="16" viewBox="0 0 62 16" fill="none" xmlns="http://www.w3.org/2000/svg">
<path fill-rule="evenodd" clip-rule="evenodd" d="M4.04145 8.0108L3.98338 7.34535H3.86227L3.73707 8.01216L2.33313 15.5267H0.322266L3.01719 1.10544H4.96773L5.69351 8.61955L5.75202 9.28682H5.87359L5.99833 8.62001L7.40227 1.10453H9.41268L6.71822 15.5249H4.76768L4.04145 8.0108ZM11.0371 1.10227H13.2298L10.5354 15.5231H8.34216L11.0371 1.10227ZM15.8789 8.00672L15.8204 7.33991H15.6989L15.5741 8.00672L14.1702 15.5208H12.1598L14.8547 1.09954H16.8052L17.531 8.61411L17.5895 9.28047H17.7116L17.8358 8.61411L19.242 1.09864H21.2525L18.5575 15.5195H16.607L15.8789 8.00672ZM22.0785 4.06028C22.2073 3.37306 22.8442 0.940326 25.5259 0.938965C28.2077 0.937605 27.9346 3.37079 27.8067 4.05756L26.274 12.2612C26.0834 13.2813 25.5142 15.6742 22.773 15.6751C20.0318 15.676 20.3575 13.2827 20.548 12.2625L20.7167 11.3603H22.9095C22.5466 13.3027 22.4886 13.8316 23.1173 13.8307C23.6657 13.8307 23.8762 13.3594 24.0812 12.2616L24.587 9.554C24.2346 9.76613 23.8352 9.88755 23.4244 9.90736C21.1708 9.90736 21.4058 7.67195 21.5564 6.86815L22.0785 4.06028ZM25.7292 3.43066C25.7446 3.35066 25.7419 3.26821 25.7212 3.18939C25.7006 3.11058 25.6625 3.03741 25.6097 2.97528C25.557 2.91316 25.491 2.86366 25.4166 2.83044C25.3422 2.79723 25.2613 2.78114 25.1798 2.78336C24.9981 2.79929 24.8255 2.86962 24.6843 2.98518C24.5432 3.10073 24.4402 3.25614 24.3887 3.43112L23.6081 7.61026C23.5969 7.68963 23.6027 7.77045 23.625 7.84744C23.6473 7.92442 23.6856 7.99582 23.7374 8.05695C23.7892 8.11808 23.8534 8.16756 23.9257 8.20213C23.998 8.23671 24.0768 8.2556 24.1569 8.25757C24.3319 8.25176 24.5009 8.19197 24.6405 8.0864C24.7802 7.98083 24.8838 7.83464 24.9372 7.66787L25.7292 3.43066ZM31.989 3.19343H28.6994L29.0918 1.0941H34.6155L34.2195 3.21338L29.7287 15.5167H27.4543L31.989 3.19343ZM35.6719 1.09229H40.6866L40.2784 3.26963H37.456L36.7484 7.0564H38.7787L38.346 9.36983H36.3165L35.5776 13.3362H38.3995L37.9913 15.5136H32.9756L35.6719 1.09229ZM45.8864 1.08911H48.0184L43.049 15.5104H40.8563L41.2768 1.09002H43.4088L43.0236 9.01646L42.9919 9.62431H43.1139L43.3081 9.01601L45.8864 1.08911ZM49.0136 1.08911H54.0297L53.6214 3.26646H50.7986L50.0909 7.05322H52.1218L51.6899 9.36666H49.6591L48.9188 13.3331H51.7416L51.3334 15.5104H46.3178L49.0136 1.08911ZM56.2714 7.99266L56.2134 7.32585H56.0918L55.9671 7.99266L54.5609 15.5072H52.55L55.2476 1.08548H57.1982L57.9262 8.60005L57.9861 9.26777H58.1081L58.2324 8.6005L59.6386 1.08594H61.6486L58.9546 15.5072H57.004L56.2714 7.99266Z" fill="white"/>
</svg>
