<svg width="12" height="20" viewBox="0 0 12 20" fill="none" xmlns="http://www.w3.org/2000/svg">
<path d="M11.2915 0.00396714L8.4772 0C5.31544 0 3.27217 1.84174 3.27217 4.69233V6.85581H0.44252C0.198005 6.85581 0 7.02997 0 7.24479V10.3794C0 10.5942 0.198231 10.7682 0.44252 10.7682H3.27217V18.6779C3.27217 18.8927 3.47017 19.0667 3.71469 19.0667H7.40657C7.65109 19.0667 7.84909 18.8925 7.84909 18.6779V10.7682H9.98427C10.2288 10.7682 10.4268 10.5942 10.4268 10.3794L11.6015 7.24479C11.6015 7.14164 11.5547 7.04286 11.4719 6.96987C11.389 6.89687 11.2761 6.85581 11.1587 6.85581H7.84909V5.0218C7.84909 4.14031 8.08819 3.69281 9.3952 3.69281L11.291 3.69222C11.5353 3.69222 11.7333 3.51806 11.7333 3.30344V0.392747C11.7333 0.178323 11.5356 0.00436385 11.2915 0.00396714Z" fill="#3ABDB5"/>
</svg>
