<svg width="21" height="21" viewBox="0 0 21 21" fill="none" xmlns="http://www.w3.org/2000/svg">
<path fill-rule="evenodd" clip-rule="evenodd" d="M2 0C0.895431 0 0 0.89543 0 2V19C0 20.1046 0.89543 21 2 21H19C20.1046 21 21 20.1046 21 19V2C21 0.895431 20.1046 0 19 0H2ZM16.2508 2.73026C16.5043 2.47673 16.857 2.33203 17.216 2.33203C17.5762 2.33203 17.929 2.47673 18.1824 2.73026C18.437 2.98255 18.5823 3.33378 18.5823 3.69243C18.5823 4.04984 18.437 4.40107 18.1824 4.6546C17.9277 4.90689 17.5762 5.05282 17.216 5.05282C16.857 5.05282 16.5042 4.90689 16.2508 4.6546C15.9962 4.40107 15.8496 4.04996 15.8496 3.69243C15.8496 3.33378 15.9961 2.98255 16.2508 2.73026ZM5 10.4533C5 7.48291 7.42741 5.06641 10.4112 5.06641C13.3949 5.06641 15.8224 7.48291 15.8224 10.4533C15.8224 13.4235 13.3949 15.8399 10.4112 15.8399C7.42741 15.8399 5 13.4235 5 10.4533ZM6.86323 10.4531C6.86323 12.4006 8.45492 13.9849 10.4112 13.9849C12.3674 13.9849 13.9591 12.4006 13.9591 10.4531C13.9591 8.50555 12.3676 6.92114 10.4112 6.92114C8.45479 6.92114 6.86323 8.50555 6.86323 10.4531Z" fill="#3ABDB5"/>
</svg>
