<svg width="224" height="34" viewBox="0 0 224 34" fill="none" xmlns="http://www.w3.org/2000/svg">
<path d="M222.872 9.09753L223.775 10.2347H224.001L223.775 6.5957H204.807L204.581 10.2347H204.807L205.71 9.09753H212.71V25.4731L211.581 26.3829V26.6103H217.001V26.3829L215.872 25.4731V9.09753H222.872ZM78.1297 9.77985L82.1943 18.1951H74.5168L78.1297 9.77985ZM131.42 9.77985L135.259 18.1951H127.581L131.42 9.77985ZM109.291 9.32497C111.775 9.32497 113.581 10.2347 113.581 12.5091C113.581 14.5561 111.775 15.6933 109.291 15.6933H101.388V9.32497H109.291ZM162.356 9.32497C164.839 9.32497 166.646 10.2347 166.646 12.5091C166.646 14.5561 164.839 15.6933 162.356 15.6933H154.452V9.32497H162.356ZM50.5813 24.1085V7.7329L51.7104 7.05058V6.5957H46.5168V6.82314L47.42 7.7329V25.4731L46.291 26.3829V26.6103H62.5491L62.7749 22.9713H62.5491L61.6459 24.1085H50.5813ZM183.581 24.1085V17.7402H193.065L193.743 18.8774H193.969V14.3286H193.743L193.065 15.4658H183.581V9.09753H195.549L196.452 10.4622H196.678L196.452 6.5957H179.291V6.82314L180.42 7.50546V25.2457L179.291 26.1554V26.3829H196.904L197.13 22.7439H196.904L196.001 23.881H183.581V24.1085ZM133.227 6.5957H127.807V6.82314L128.936 7.96034L121.259 25.4731L120.13 26.3829V26.6103H125.098V26.3829L124.194 25.4731L126.452 20.6969H136.388L138.646 25.4731L137.517 26.3829V26.6103H143.388V26.3829L142.259 25.2457L133.227 6.5957ZM80.162 6.5957H74.7426V6.82314L75.8717 7.96034L68.1943 25.4731L67.0652 26.3829V26.6103H72.2588V26.3829L71.3556 25.4731L73.3878 20.6969H83.3233L85.5814 25.4731L84.4523 26.3829V26.6103H90.3233V26.3829L88.9685 25.2457L80.162 6.5957ZM109.517 18.1951C114.71 18.1951 116.968 16.1481 116.968 12.5091C116.968 8.87009 114.71 6.82314 109.517 6.82314H97.3233V7.05058L98.4523 7.7329V25.4731L97.0975 26.3829V26.6103H102.517V26.3829L101.388 25.4731V18.1951H109.517ZM169.581 25.7006L163.71 18.1951C168.001 17.9676 170.033 15.9207 170.033 12.5091C170.033 8.87009 167.775 6.82314 162.581 6.82314H150.388V7.05058L151.291 7.7329V25.4731L150.162 26.3829V26.6103H155.581V26.3829L154.452 25.4731V18.1951H159.646L166.194 26.6103H170.71V26.3829L169.581 25.7006Z" fill="#1D201E"/>
<path d="M0 15.011C0 18.1951 2.25807 23.4262 5.64516 27.2926C4.29033 22.7439 2.48387 18.1951 0 13.8738C0 14.1012 0 14.5561 0 15.011ZM9.48388 30.7042C8.58065 25.0183 7.45162 19.3323 5.19355 13.4189C4.29033 11.3719 3.3871 9.09755 2.25807 7.0506C1.80645 7.96035 1.12903 8.87011 0.903226 9.77987C1.58065 11.3719 2.25807 12.964 2.93549 14.3286C4.96774 19.1049 6.32258 24.1085 7.45162 29.1122C8.12904 29.7945 8.80646 30.2493 9.48388 30.7042ZM15.3548 12.7366C15.129 8.64267 14.6774 4.54877 14.2258 0C13.3226 0 12.1936 0.227439 11.2903 0.454877C11.9677 4.0939 12.1936 7.96035 12.871 12.7366C13.5484 19.3323 14 26.1555 14.4516 32.9786C14.9032 32.9786 15.3548 33.2061 15.8065 33.2061C15.8065 26.6103 15.5807 20.0146 15.3548 12.7366ZM10.3871 13.8738C9.70968 10.0073 8.80646 6.14085 7.22581 2.27439C6.32258 2.72926 5.64516 3.41158 4.96775 4.0939C6.32258 7.27804 7.45162 10.6896 8.35484 14.3286C9.70968 20.0146 10.6129 25.928 11.2903 32.0689C11.7419 32.2963 12.1936 32.5237 12.871 32.7512C12.4194 26.3829 11.7419 20.242 10.3871 13.8738ZM33.1936 15.011C33.1936 14.5561 33.1936 14.1012 33.1936 13.8738C30.7097 18.1951 28.9032 22.7439 27.5484 27.5201C30.9355 23.4262 33.1936 18.1951 33.1936 15.011ZM23.7097 30.7042C24.3871 30.2493 25.0645 29.7945 25.5161 29.3396C26.6452 24.3359 28 19.1049 30.0323 14.5561C30.7097 12.964 31.3871 11.5994 32.0645 10.0073C31.6129 8.87011 31.1613 7.96035 30.7097 7.0506C29.8065 9.09755 28.9032 11.3719 28 13.4189C25.9678 19.3323 24.6129 25.0183 23.7097 30.7042ZM17.8387 12.7366C17.3871 20.242 17.3871 26.8378 17.1613 33.4335C17.6129 33.4335 18.0645 33.4335 18.5161 33.2061C18.9678 26.3829 19.4194 19.7872 20.0968 12.964C20.5484 8.18779 21 4.32134 21.6774 0.682316C20.7742 0.454877 19.871 0.227439 18.7419 0C18.2903 4.54877 18.0645 8.64267 17.8387 12.7366ZM22.5807 13.8738C21.4516 20.242 20.7742 26.3829 20.3226 32.7512C20.7742 32.5237 21.4516 32.2963 21.9032 32.0689C22.5807 26.1555 23.4839 20.242 24.8387 14.3286C25.742 10.6896 26.6452 7.27804 28.2258 4.0939C27.5484 3.41158 26.6452 2.9567 25.742 2.27439C24.3871 6.14085 23.4839 10.0073 22.5807 13.8738Z" fill="#1D201E"/>
</svg>
